<svg width="24" height="24" viewBox="0 0 24 24" fill="none" xmlns="http://www.w3.org/2000/svg">
<path fill-rule="evenodd" clip-rule="evenodd" d="M10.53 3.67386C10.3735 3.70204 10.1662 3.76462 9.80484 3.87607C6.33418 4.94645 3.81348 8.17984 3.81348 12C3.81348 16.6944 7.61906 20.5 12.3135 20.5C15.1538 20.5 17.6688 19.1077 19.2136 16.9649C19.4062 16.6977 19.5092 16.5525 19.5719 16.4371C19.6192 16.3503 19.6162 16.3284 19.6158 16.3254C19.6158 16.3252 19.6158 16.3251 19.6158 16.3251C19.6155 16.2776 19.5719 16.1795 19.5358 16.1432C19.5228 16.1365 19.4784 16.1175 19.3707 16.0957C19.1887 16.0589 18.9367 16.0334 18.524 15.9933C14.2517 15.5777 11.7822 14.0061 10.6361 11.8104C9.51389 9.66028 9.78163 7.13137 10.4714 5.0388C10.6285 4.5621 10.7289 4.25496 10.7812 4.02613C10.8134 3.88544 10.8153 3.82092 10.815 3.8016C10.7898 3.74658 10.7248 3.68284 10.6718 3.66306L10.9342 2.96044L10.6718 3.66306C10.6718 3.66305 10.6717 3.66303 10.6717 3.663C10.6709 3.66267 10.668 3.66136 10.6554 3.66086C10.6377 3.66015 10.6003 3.66122 10.53 3.67386ZM19.5402 16.1457C19.5401 16.1457 19.5393 16.1453 19.538 16.1443C19.5396 16.1452 19.5402 16.1457 19.5402 16.1457ZM10.2643 2.19759C10.5532 2.14558 10.8669 2.13474 11.1965 2.25782C11.6703 2.43473 12.0675 2.83967 12.2353 3.31679C12.3643 3.68377 12.3138 4.05303 12.2435 4.36062C12.1735 4.66649 12.0499 5.04126 11.907 5.47479L11.896 5.50836C11.2637 7.42658 11.1135 9.48312 11.9659 11.1163C12.7946 12.7039 14.6925 14.1135 18.6692 14.5003L18.7041 14.5037C19.0708 14.5393 19.4013 14.5715 19.6684 14.6255C19.9529 14.6832 20.2632 14.7827 20.5282 15.0182C20.8834 15.3338 21.1134 15.8425 21.1158 16.3177C21.1173 16.642 21.0214 16.9115 20.8897 17.1537C20.7759 17.363 20.615 17.5861 20.4511 17.8133L20.4303 17.8421C18.6158 20.3591 15.6563 22 12.3135 22C6.79063 22 2.31348 17.5229 2.31348 12C2.31348 7.50324 5.28101 3.70153 9.36277 2.44269C9.37466 2.43902 9.38652 2.43536 9.39836 2.43171C9.71138 2.33512 10.0071 2.24389 10.2643 2.19759Z" fill="black"/>
</svg>
