<svg width="24" height="24" viewBox="0 0 24 24" fill="none" xmlns="http://www.w3.org/2000/svg">
<path fill-rule="evenodd" clip-rule="evenodd" d="M8.2753 4.07867C7.09317 4.07867 6.13487 5.03698 6.13487 6.2191C6.13487 7.40123 7.09317 8.35953 8.2753 8.35953C9.45742 8.35953 10.4157 7.40123 10.4157 6.2191C10.4157 5.03698 9.45742 4.07867 8.2753 4.07867ZM4.71221 5.4691C5.05793 3.81837 6.52184 2.57867 8.2753 2.57867C10.0288 2.57867 11.4927 3.81837 11.8384 5.4691H21.25C21.6642 5.4691 22 5.80489 22 6.2191C22 6.63332 21.6642 6.9691 21.25 6.9691H11.8384C11.4927 8.61984 10.0288 9.85953 8.2753 9.85953C6.52184 9.85953 5.05793 8.61984 4.71221 6.9691H2.75001C2.3358 6.9691 2.00001 6.63332 2.00001 6.2191C2.00001 5.80489 2.3358 5.4691 2.75001 5.4691L4.71221 5.4691ZM15.7247 9.85954C14.5426 9.85954 13.5843 10.8178 13.5843 12C13.5843 13.1821 14.5426 14.1404 15.7247 14.1404C16.9068 14.1404 17.8651 13.1821 17.8651 12C17.8651 10.8178 16.9068 9.85954 15.7247 9.85954ZM12.1616 11.25C12.5073 9.59923 13.9712 8.35954 15.7247 8.35954C17.4782 8.35954 18.9421 9.59923 19.2878 11.25H21.25C21.6642 11.25 22 11.5858 22 12C22 12.4142 21.6642 12.75 21.25 12.75H19.2878C18.9421 14.4007 17.4782 15.6404 15.7247 15.6404C13.9712 15.6404 12.5073 14.4007 12.1616 12.75H2.75C2.33579 12.75 2 12.4142 2 12C2 11.5858 2.33579 11.25 2.75 11.25H12.1616ZM8.2753 15.6404C7.09317 15.6404 6.13487 16.5987 6.13487 17.7808C6.13487 18.9629 7.09317 19.9213 8.2753 19.9213C9.45742 19.9213 10.4157 18.9629 10.4157 17.7808C10.4157 16.5987 9.45742 15.6404 8.2753 15.6404ZM4.71221 17.0308C5.05793 15.3801 6.52184 14.1404 8.2753 14.1404C10.0288 14.1404 11.4927 15.3801 11.8384 17.0308H21.2499C21.6641 17.0308 21.9999 17.3666 21.9999 17.7808C21.9999 18.195 21.6641 18.5308 21.2499 18.5308H11.8384C11.4927 20.1816 10.0288 21.4213 8.2753 21.4213C6.52184 21.4213 5.05793 20.1816 4.71221 18.5308H2.75001C2.33579 18.5308 2.00001 18.195 2.00001 17.7808C2.00001 17.3666 2.33579 17.0308 2.75001 17.0308H4.71221Z" fill="black"/>
</svg>
