<svg width="24" height="25" viewBox="0 0 24 25" fill="none" xmlns="http://www.w3.org/2000/svg">
<mask id="mask0_18532_3645" style="mask-type:luminance" maskUnits="userSpaceOnUse" x="3" y="2" width="18" height="21">
<path fill-rule="evenodd" clip-rule="evenodd" d="M3.00031 2.5116H20.053V22.3651H3.00031V2.5116Z" fill="white"/>
</mask>
<g mask="url(#mask0_18532_3645)">
<path fill-rule="evenodd" clip-rule="evenodd" d="M7.57341 4.0116C5.91641 4.0116 4.54041 5.3536 4.50141 7.0086V17.7036C4.46441 19.4166 5.81441 20.8276 7.51041 20.8656H15.5744C17.2434 20.7966 18.5654 19.4096 18.5534 17.7096V8.8396L13.9184 4.0116H7.58541H7.57341ZM7.58541 22.3656H7.47641C4.95441 22.3086 2.94641 20.2106 3.00141 17.6876V6.9906C3.05941 4.5096 5.10841 2.5116 7.57141 2.5116H7.58841H14.2384C14.4424 2.5116 14.6374 2.5946 14.7794 2.7416L19.8444 8.0186C19.9784 8.1576 20.0534 8.3446 20.0534 8.5376V17.7036C20.0714 20.2126 18.1174 22.2626 15.6044 22.3646L7.58541 22.3656Z" fill="#212121"/>
</g>
<path fill-rule="evenodd" clip-rule="evenodd" d="M13.7887 16.6084H8.3887C7.9747 16.6084 7.6387 16.2724 7.6387 15.8584C7.6387 15.4444 7.9747 15.1084 8.3887 15.1084H13.7887C14.2027 15.1084 14.5387 15.4444 14.5387 15.8584C14.5387 16.2724 14.2027 16.6084 13.7887 16.6084Z" fill="#212121"/>
<path fill-rule="evenodd" clip-rule="evenodd" d="M11.7438 12.8563H8.38782C7.97382 12.8563 7.63782 12.5203 7.63782 12.1063C7.63782 11.6923 7.97382 11.3563 8.38782 11.3563H11.7438C12.1578 11.3563 12.4938 11.6923 12.4938 12.1063C12.4938 12.5203 12.1578 12.8563 11.7438 12.8563Z" fill="#212121"/>
<path fill-rule="evenodd" clip-rule="evenodd" d="M19.2985 9.48424H16.5435C14.7135 9.47924 13.2255 7.98724 13.2255 6.15924V3.25024C13.2255 2.83624 13.5615 2.50024 13.9755 2.50024C14.3895 2.50024 14.7255 2.83624 14.7255 3.25024V6.15924C14.7255 7.16324 15.5425 7.98124 16.5455 7.98424H19.2985C19.7125 7.98424 20.0485 8.32024 20.0485 8.73424C20.0485 9.14824 19.7125 9.48424 19.2985 9.48424Z" fill="#212121"/>
</svg>
