<svg width="24" height="24" viewBox="0 0 24 24" fill="none" xmlns="http://www.w3.org/2000/svg">
<path fill-rule="evenodd" clip-rule="evenodd" d="M12 2C12.4142 2 12.75 2.33579 12.75 2.75V5.18421C12.75 5.59842 12.4142 5.93421 12 5.93421C11.5858 5.93421 11.25 5.59842 11.25 5.18421V2.75C11.25 2.33579 11.5858 2 12 2ZM4.92868 4.92892C5.22157 4.63602 5.69645 4.63602 5.98934 4.92892L7.35704 6.29662C7.64993 6.58951 7.64993 7.06438 7.35704 7.35728C7.06415 7.65017 6.58927 7.65017 6.29638 7.35728L4.92868 5.98958C4.63579 5.69668 4.63579 5.22181 4.92868 4.92892ZM19.0704 4.92892C19.3633 5.22181 19.3633 5.69668 19.0704 5.98958L17.7027 7.35728C17.4098 7.65017 16.9349 7.65017 16.642 7.35728C16.3491 7.06438 16.3491 6.58951 16.642 6.29662L18.0097 4.92892C18.3026 4.63602 18.7775 4.63602 19.0704 4.92892ZM7.35526 12C7.35526 9.43478 9.43478 7.35526 12 7.35526C14.5652 7.35526 16.6447 9.43478 16.6447 12C16.6447 14.5652 14.5652 16.6447 12 16.6447C9.43478 16.6447 7.35526 14.5652 7.35526 12ZM12 8.85526C10.2632 8.85526 8.85526 10.2632 8.85526 12C8.85526 13.7368 10.2632 15.1447 12 15.1447C13.7368 15.1447 15.1447 13.7368 15.1447 12C15.1447 10.2632 13.7368 8.85526 12 8.85526ZM2 12C2 11.5858 2.33579 11.25 2.75 11.25H5.18421C5.59842 11.25 5.93421 11.5858 5.93421 12C5.93421 12.4142 5.59842 12.75 5.18421 12.75H2.75C2.33579 12.75 2 12.4142 2 12ZM18.0658 12C18.0658 11.5858 18.4016 11.25 18.8158 11.25H21.25C21.6642 11.25 22 11.5858 22 12C22 12.4142 21.6642 12.75 21.25 12.75H18.8158C18.4016 12.75 18.0658 12.4142 18.0658 12ZM16.6576 16.6571C16.9505 16.3642 17.4254 16.3642 17.7183 16.6571L19.0713 18.0102C19.3642 18.303 19.3642 18.7779 19.0713 19.0708C18.7784 19.3637 18.3035 19.3637 18.0106 19.0708L16.6576 17.7178C16.3647 17.4249 16.3647 16.95 16.6576 16.6571ZM7.34242 16.6574C7.63531 16.9503 7.63531 17.4251 7.34242 17.718L5.98939 19.071C5.6965 19.3639 5.22163 19.3639 4.92873 19.071C4.63584 18.7782 4.63584 18.3033 4.92873 18.0104L6.28176 16.6574C6.57465 16.3645 7.04953 16.3645 7.34242 16.6574ZM12 18.0658C12.4142 18.0658 12.75 18.4016 12.75 18.8158V21.25C12.75 21.6642 12.4142 22 12 22C11.5858 22 11.25 21.6642 11.25 21.25V18.8158C11.25 18.4016 11.5858 18.0658 12 18.0658Z" fill="black"/>
</svg>
