<svg width="24" height="24" viewBox="0 0 24 24" fill="none" xmlns="http://www.w3.org/2000/svg">
<path fill-rule="evenodd" clip-rule="evenodd" d="M9.117 2.27063H14.883C15.9751 2.27062 16.8406 2.27062 17.5383 2.32762C18.2517 2.3859 18.8553 2.50751 19.4065 2.78835C20.3002 3.24375 21.0269 3.97041 21.4823 4.86418C21.7631 5.41535 21.8847 6.01897 21.943 6.73236C22 7.42998 22 8.29548 22 9.38761V11.5693C22 12.6614 22 13.5269 21.943 14.2245C21.8847 14.9379 21.7631 15.5415 21.4823 16.0927C21.0269 16.9865 20.3002 17.7131 19.4065 18.1685C18.8553 18.4494 18.2517 18.571 17.5383 18.6293C16.8406 18.6863 15.9752 18.6863 14.883 18.6863H12.7501V20.2293H15.1781C15.5923 20.2293 15.9281 20.5651 15.9281 20.9793C15.9281 21.3936 15.5923 21.7293 15.1781 21.7293H8.82212C8.40791 21.7293 8.07212 21.3936 8.07212 20.9793C8.07212 20.5651 8.40791 20.2293 8.82212 20.2293H11.2501V18.6863H9.11698C8.02484 18.6863 7.15935 18.6863 6.46173 18.6293C5.74834 18.571 5.14472 18.4494 4.59355 18.1685C3.69978 17.7131 2.97312 16.9865 2.51772 16.0927C2.23688 15.5415 2.11527 14.9379 2.05699 14.2245C1.99999 13.5269 1.99999 12.6614 2 11.5693V9.38763C1.99999 8.29549 1.99999 7.42999 2.05699 6.73236C2.11527 6.01898 2.23688 5.41535 2.51772 4.86418C2.97312 3.97041 3.69978 3.24375 4.59355 2.78835C5.14472 2.50751 5.74834 2.3859 6.46173 2.32762C7.15936 2.27062 8.02486 2.27062 9.117 2.27063ZM14.85 17.1863C15.9825 17.1863 16.7867 17.1857 17.4161 17.1343C18.0367 17.0835 18.421 16.9872 18.7255 16.832C19.337 16.5204 19.8342 16.0233 20.1458 15.4117C20.3009 15.1073 20.3973 14.723 20.448 14.1024C20.4994 13.473 20.5 12.6687 20.5 11.5363V9.42063C20.5 8.28815 20.4994 7.48389 20.448 6.85451C20.3973 6.23388 20.3009 5.84963 20.1458 5.54516C19.8342 4.93363 19.337 4.43645 18.7255 4.12486C18.421 3.96972 18.0367 3.87334 17.4161 3.82264C16.7867 3.77121 15.9825 3.77063 14.85 3.77063H9.15C8.01752 3.77063 7.21326 3.77121 6.58388 3.82264C5.96325 3.87334 5.579 3.96972 5.27453 4.12486C4.663 4.43645 4.16582 4.93363 3.85423 5.54516C3.69909 5.84963 3.60271 6.23388 3.55201 6.85451C3.50058 7.4839 3.5 8.28815 3.5 9.42063V11.5363C3.5 12.6687 3.50058 13.473 3.55201 14.1024C3.60271 14.723 3.69909 15.1073 3.85423 15.4117C4.16582 16.0233 4.663 16.5204 5.27453 16.832C5.579 16.9872 5.96325 17.0835 6.58388 17.1343C7.21326 17.1857 8.01752 17.1863 9.15 17.1863H14.85Z" fill="black"/>
</svg>
